<?xml version="1.0" encoding="utf-8"?>
<!-- Generator: Adobe Illustrator 19.0.0, SVG Export Plug-In . SVG Version: 6.00 Build 0)  -->
<svg version="1.1" id="Layer_1" xmlns="http://www.w3.org/2000/svg" xmlns:xlink="http://www.w3.org/1999/xlink" x="0px" y="0px"
	 viewBox="0 0 405 405" style="enable-background:new 0 0 405 405;" xml:space="preserve">
<style type="text/css">
	.st0{fill:#5D8F34;}
</style>
<g>
	<g>
		<g>
			<g>
				<path class="st0" d="M163.1,78.2c-1,36.8,24,52.3,32.4,56.2c2.3-7.7,4.4-26.4-1.2-60C185.6,23.2,203,1,203,1
					C185.7,14,164,44.7,163.1,78.2z"/>
			</g>
			<g>
				<path class="st0" d="M216.1,48c-5.1-9-9.9-17.5-11.1-26.2c-1-8-1.1-14.9-0.5-20.8c0,0-14.9,22.8-4.1,73.7
					c6.8,31.8,4.6,50.5,2.6,58.8c8-4.4,26.4-17.8,26.8-46.4C230.1,72.6,222.9,60.1,216.1,48z"/>
			</g>
		</g>
		<g>
			<g>
				<path class="st0" d="M92.1,155.3c25.3,26.7,54,20,62.7,16.9c-3.8-7-15.6-21.8-43.3-41.5c-42.4-30.1-45.7-58.1-45.7-58.1
					C62.8,93.9,69.2,130.9,92.1,155.3z"/>
			</g>
			<g>
				<path class="st0" d="M108.3,96.5c-10-2.8-19.4-5.4-26.3-10.7c-6.4-4.9-11.3-9.7-15-14.3c0,0,5.5,26.6,49.3,55
					c27.3,17.7,38.9,32.5,43.5,39.8c2.5-8.8,6.1-31.2-13.9-51.7C135.6,104,121.7,100.2,108.3,96.5z"/>
			</g>
		</g>
		<g>
			<g>
				<path class="st0" d="M97.6,254.6c36.8,1,52.3-24,56.2-32.4c-7.6-2.3-26.4-4.4-60,1.2c-51.3,8.7-73.4-8.8-73.4-8.8
					C33.4,232,64.1,253.7,97.6,254.6z"/>
			</g>
			<g>
				<path class="st0" d="M67.4,201.6c-9,5.1-17.5,9.9-26.2,11.1c-7.9,1.1-14.8,1.1-20.8,0.5c0,0,22.8,14.9,73.7,4.1
					c31.8-6.8,50.5-4.6,58.9-2.6c-4.4-8-17.8-26.4-46.4-26.8C92,187.7,79.5,194.8,67.4,201.6z"/>
			</g>
		</g>
		<g>
			<g>
				<path class="st0" d="M263.8,95.8c-26.7,25.3-20,54-16.9,62.7c7.1-3.8,21.8-15.6,41.5-43.3c30.1-42.4,58.1-45.8,58.1-45.8
					C325.2,66.5,288.1,72.8,263.8,95.8z"/>
			</g>
			<g>
				<path class="st0" d="M322.6,111.9c2.8-10,5.4-19.4,10.7-26.3c4.9-6.4,9.7-11.2,14.3-15c0,0-26.6,5.5-55,49.3
					c-17.7,27.3-32.5,38.9-39.8,43.5c8.8,2.5,31.2,6.1,51.7-13.9C315.1,139.2,318.9,125.4,322.6,111.9z"/>
			</g>
		</g>
		<g>
			<g>
				<path class="st0" d="M308.1,178.5c-36.8-1-52.3,24-56.3,32.4c7.6,2.3,26.4,4.4,60-1.2c51.3-8.6,73.4,8.7,73.4,8.7
					C372.3,201.1,341.6,179.4,308.1,178.5z"/>
			</g>
			<g>
				<path class="st0" d="M338.3,231.4c9-5.1,17.5-9.9,26.2-11.1c8-1,14.8-1.1,20.8-0.5c0,0-22.8-14.9-73.7-4.1
					c-31.8,6.8-50.5,4.6-58.8,2.6c4.4,8,17.7,26.4,46.4,26.7C313.7,245.4,326.2,238.3,338.3,231.4z"/>
			</g>
		</g>
		<g>
			<g>
				<path class="st0" d="M238.9,50.4c-7.6,18.3,2.1,30.9,5.5,34.5c2.6-3.4,7.3-12.5,10.9-30.4c5.4-27.5,18.5-35.3,18.5-35.3
					C262.6,22.4,245.8,33.7,238.9,50.4z"/>
			</g>
			<g>
				<path class="st0" d="M271.4,45.3c-0.8-5.5-1.6-10.7-0.6-15.3c1-4.2,2.3-7.7,3.7-10.5c0,0-11.9,8.6-16.1,36.4
					c-2.7,17.3-7.4,26.3-9.9,30.1c4.9-0.7,16.7-3.9,22.4-18.2C273.7,60.4,272.5,52.7,271.4,45.3z"/>
			</g>
		</g>
		<g>
			<g>
				<path class="st0" d="M115.4,63.4c7.6,18.3,23.3,20.4,28.3,20.5c-0.5-4.3-3.7-14-13.8-29.2c-15.6-23.3-11.9-38-11.9-38
					C112.4,26.9,108.5,46.7,115.4,63.4z"/>
			</g>
			<g>
				<path class="st0" d="M134.7,36.9c-4.5-3.3-8.8-6.4-11.2-10.4c-2.3-3.7-3.8-7.1-4.8-10.1c0,0-2.3,14.5,14.3,37.1
					c10.4,14.2,13.4,23.8,14.3,28.4c2.9-4,9.1-14.6,2.9-28.7C147,45.9,140.8,41.3,134.7,36.9z"/>
			</g>
		</g>
		<g>
			<g>
				<path class="st0" d="M46.1,177.1c18.3,7.5,30.9-2.1,34.5-5.6c-3.4-2.6-12.5-7.3-30.4-10.8c-27.5-5.5-35.3-18.5-35.3-18.5
					C18.1,153.4,29.4,170.2,46.1,177.1z"/>
			</g>
			<g>
				<path class="st0" d="M41,144.6c-5.5,0.9-10.7,1.7-15.3,0.6c-4.2-1-7.7-2.3-10.5-3.7c0,0,8.6,11.9,36.4,16.1
					c17.3,2.7,26.3,7.4,30.1,9.9c-0.7-4.9-3.9-16.7-18.3-22.3C56.1,142.3,48.4,143.5,41,144.6z"/>
			</g>
		</g>
		<g>
			<g>
				<path class="st0" d="M346.2,132.9c-18.3,7.6-20.4,23.3-20.5,28.3c4.3-0.6,14-3.7,29.2-13.8c23.3-15.6,38-11.9,38-11.9
					C382.7,129.9,362.8,126,346.2,132.9z"/>
			</g>
			<g>
				<path class="st0" d="M372.7,152.3c3.3-4.5,6.4-8.7,10.4-11.2c3.7-2.3,7.1-3.8,10.1-4.8c0,0-14.5-2.3-37.1,14.3
					c-14.1,10.4-23.8,13.4-28.3,14.3c3.9,3,14.5,9.1,28.7,2.9C363.7,164.6,368.3,158.3,372.7,152.3z"/>
			</g>
		</g>
		<path class="st0" d="M194.1,273.7c6-4.6,12.4-10.1,17.8-16c15.2-16.6,22-43.3,22-43.3l-3-2.9c0,0-11,25.3-28.6,39.3
			c-2.9,2.3-6,4.5-9.2,6.5c-2.1-53.3,7.1-93.5,9.7-103.9l-7.5-2.5c0,0-21.7,54.4-21.5,129.3c0.2,59.6,24.5,120.1,24.5,120.1
			l32.5-1.7c0,0-30.1-57.9-36.1-117.2C194.5,278.9,194.3,276.3,194.1,273.7z"/>
	</g>
</g>
</svg>
